PathFileType	4	(X/Y/Z)	Patient4_TMGait_0pt8_01_left_51.trc.trc
DataRate	CameraRate	NumFrames	NumMarkers	Units	OrigDataRate	OrigDataStartFrame	OrigNumFrames
89.743589743590	89.743589743590	4	33	mm	89.743589743590	18	       141
Frame#	Time	Sacral			L.Shoulder			Chest			R.Shoulder			Neck			R.ASIS			L.ASIS			R.Thigh.Superior			R.Thigh.Lateral			R.Thigh.Inferior			R.Patella			L.Thigh.Superior			L.Thigh.Lateral			L.Thigh.Inferior			L.Patella			L.Shank.Superior			L.Shank.Lateral			L.Shank.Inferior			R.Shank.Superior			R.Shank.Lateral			R.Shank.Inferior			R.Heel			R.Midfoot.Superior			R.Midfoot.Lateral			R.Toe			L.Heel			L.Midfoot.Lateral			L.Midfoot.Superior			L.Toe			L.Elbow			L.Wrist			R.Elbow			R.Wrist			
		X1	Y1	Z1	X2	Y2	Z2	X3	Y3	Z3	X4	Y4	Z4	X5	Y5	Z5	X6	Y6	Z6	X7	Y7	Z7	X8	Y8	Z8	X9	Y9	Z9	X10	Y10	Z10	X11	Y11	Z11	X12	Y12	Z12	X13	Y13	Z13	X14	Y14	Z14	X15	Y15	Z15	X16	Y16	Z16	X17	Y17	Z17	X18	Y18	Z18	X19	Y19	Z19	X20	Y20	Z20	X21	Y21	Z21	X22	Y22	Z22	X23	Y23	Z23	X24	Y24	Z24	X25	Y25	Z25	X26	Y26	Z26	X27	Y27	Z27	X28	Y28	Z28	X29	Y29	Z29	X30	Y30	Z30	X31	Y31	Z31	X32	Y32	Z32	X33	Y33	Z33	

18	57.059428571429	875.530458242640	1011.870582339811	552.875179433396	1039.525892161835	1430.942847115707	349.123878754189	1167.210965387189	1354.277239664766	488.630606980979	1121.549757727168	1431.111351497550	674.490946669795	1049.632049708494	1488.905495678521	506.357279228328	1109.137496945521	934.686710774011	637.881693524568	1061.883080866664	955.418216686688	366.353943632949	1097.301439122022	722.032635301629	612.918859524285	992.786305088223	632.181601524085	680.493964332084	1045.851587053149	565.362799579671	597.489209537422	1027.432176804405	483.758452011765	603.372963350641	1140.518195060214	779.666617744094	394.709012987436	1098.509052778416	652.434627468345	313.081208837405	1204.376575183632	595.170508448079	374.618105561503	1235.745432125652	535.331961201503	367.195626377918	1224.178448593229	464.110667602097	354.947969340418	1169.560534587893	328.369048448463	304.010871656813	1268.644227146447	237.816027593742	354.185598508305	992.075205316129	401.184854959511	610.217525116393	916.156190545440	301.164841291597	672.201926322099	950.008440993833	205.164947723023	604.799686783293	808.150477252876	43.422773080056	570.973133028832	979.074514399934	96.516392970483	607.482179983374	890.964712361375	36.701113016936	646.050360498983	1099.237513492069	44.229662677375	635.609420973541	1207.607973504712	48.651204906247	394.910955762559	1280.139859117704	59.458444658318	313.811278154752	1341.279706953782	146.542658086985	331.547718932433	1477.678013827041	132.434957532009	304.781210708179	877.526372716723	1112.667477845827	274.501955996759	806.429928530334	864.375514249133	295.896337625204	1293.738337436229	1134.407414014972	773.305395280334	1549.446566011390	1104.577257344220	733.736709651180	
19	57.070571428571	876.416286198134	1010.208232986224	551.368383899396	1039.660294444523	1429.753516579199	347.656505709378	1167.215768118414	1353.156969369049	487.371530661157	1121.100489631077	1430.151038064511	672.934708864631	1049.363243937164	1487.604089975282	504.967961927839	1109.912404181083	933.315246693931	636.455692805884	1062.677472577273	953.883515878223	364.893284930715	1097.184016467183	720.401034743057	611.499752301574	991.945906997104	631.038187595132	679.093562306650	1044.211578957564	563.922964806076	595.916351299974	1024.837205395718	482.044210117226	601.743899964029	1139.480637066931	775.804023471836	393.756225373503	1095.542993383799	648.988375065704	312.668173018583	1200.726712547496	591.074568993891	374.689191591243	1231.851204355314	532.246647867621	367.289074654235	1221.430749044921	461.565916673865	354.832679428626	1168.910733290303	324.324929594478	305.919841946268	1270.816494288936	236.279562529047	355.301786462666	988.333679652765	399.691082040547	608.886446592522	911.274259716824	300.895910336308	671.424015315450	943.152536280566	204.279907535256	604.088692757381	799.233612487182	43.508160037440	570.989825390568	970.139662494472	96.341851278336	607.231106711126	882.032828676403	36.706886278377	646.043990470004	1090.315445044320	43.903460226752	635.663563411558	1214.595910835767	46.130005093358	398.387186293061	1286.072206628307	57.507923721190	316.415533273598	1345.765880508345	145.834504023322	332.654695615573	1482.229069604999	134.049403845737	304.666428424337	873.075551060623	1114.479433844572	274.588389671133	797.494898839458	867.633373303125	296.946300060586	1298.114486771701	1137.232866452181	770.388486215345	1554.307398144161	1119.270077082122	728.724326884008	
20	57.081714285714	877.495082033072	1008.415821653184	549.684703445590	1039.662111441939	1428.529120482476	346.078024608398	1167.161416063874	1352.151030861669	485.986210288057	1120.509031483508	1429.193899921301	671.292176945177	1048.969213565661	1486.268793928550	503.465934206471	1110.922025864851	931.883957519342	634.849125164244	1063.727410787545	952.348485204769	363.297159392404	1097.399447805899	718.701270873960	609.878413760186	991.464976346854	629.799811918945	677.527045795602	1042.977227592879	562.367594296964	594.214858178781	1022.603337952279	480.192362872869	599.958505966568	1139.156364430221	772.349997528800	392.497596184452	1093.114897183949	645.641437145952	312.504250481715	1197.980322191802	587.407007728180	374.353631290190	1228.629254885576	529.009774482802	367.171057250658	1218.810609928750	458.570181352627	354.901829059921	1166.961640807137	320.461439739950	308.285892542728	1270.613010947174	234.025130873759	356.988857022539	984.929008930500	398.103950585963	607.421085581484	906.634328211793	300.628614711656	670.546379015875	936.449566517972	203.379444500008	603.332344474420	790.343982874876	43.680442542188	571.020345440666	961.258675355735	96.186537829230	606.970218817884	873.134994100307	36.745064555719	646.026415528783	1081.422302639973	43.506149603893	635.726784156293	1217.076076470501	44.106614872935	402.553906530301	1287.429469664516	55.239891784300	319.629163711620	1346.801367168808	143.735781656079	334.470089903264	1482.928062646212	132.437018557177	305.037236751620	869.199949272084	1115.965243247341	274.449079813977	789.912693949867	870.365102037333	297.552048923091	1301.720981236817	1139.723106652250	767.573621660105	1557.726839087090	1133.268296959496	723.825744212692	
21	57.092857142857	878.745909448624	1006.525891940930	547.822284226135	1039.534290550067	1427.273287479927	344.399607466262	1167.060736489513	1351.255006855846	484.467976970615	1119.816286029937	1428.227330356516	669.575268773689	1048.469805183258	1484.906231762463	501.860521289524	1112.137955819673	930.397855571769	633.075364922139	1065.036576269514	950.826334970311	361.558877086857	1097.885112879571	716.943376870400	608.088765980838	991.275335682706	628.486170775853	675.816838513300	1042.100326581766	560.703363606945	592.428432090540	1020.689769625004	478.206135378586	598.056674583061	1139.603612962976	769.355070548895	390.899893975203	1091.261318729055	642.404351090778	312.600177458970	1196.175437364509	584.149395417679	373.669390082015	1226.102628683895	525.631772119008	366.992535977751	1216.429451483516	455.181024781849	355.227431021023	1164.031275034164	316.759899336720	310.920043617198	1268.392483962791	231.032302473111	359.171398459086	981.814497519203	396.441597890696	605.850257300134	902.189338944747	300.379328718980	669.587152656198	929.875444225968	202.490813965219	602.551873064689	781.477512437757	43.971815635895	571.076629154849	952.440053264898	96.069815767589	606.722104440332	864.270716208250	36.833308414305	646.003564106651	1072.561302019880	43.042180723718	635.802168463785	1215.431669164722	42.411845744423	407.044623664203	1284.732760135139	52.626341523365	323.189576746337	1344.885068493734	140.237759893191	336.942767438120	1480.370738788300	127.642538985615	306.001265720729	865.963310844324	1117.042966636707	274.054820601358	783.711518989307	872.474557230027	297.693564535452	1304.574927860326	1141.790762939868	764.896399842265	1559.765358448414	1146.485190487695	719.066822962350	
